<?xml version="1.0" encoding="UTF-8"?>
<svg xmlns="http://www.w3.org/2000/svg" xmlns:xlink="http://www.w3.org/1999/xlink" width="20px" height="20px" viewBox="0 0 20 20" version="1.1">
<g id="surface1">
<path style=" stroke:none;fill-rule:nonzero;fill:#ffffff;fill-opacity:1;" d="M 19.589844 3.511719 L 18.015625 3.511719 L 10.320312 13.265625 C 10.242188 13.359375 10.125 13.417969 10 13.417969 C 9.875 13.417969 9.757812 13.359375 9.675781 13.265625 L 1.984375 3.511719 L 0.410156 3.511719 C 0.25 3.511719 0.109375 3.601562 0.0390625 3.742188 C -0.0273438 3.886719 -0.0078125 4.054688 0.0859375 4.175781 L 9.679688 16.332031 C 9.757812 16.429688 9.875 16.488281 10 16.488281 C 10.125 16.488281 10.246094 16.429688 10.324219 16.332031 L 19.910156 4.175781 C 20.011719 4.054688 20.027344 3.882812 19.957031 3.742188 C 19.890625 3.601562 19.746094 3.511719 19.589844 3.511719 Z M 19.589844 3.511719 "/>
</g>
</svg>
